<svg id="Layer_1" data-name="Layer 1" xmlns="http://www.w3.org/2000/svg" viewBox="0 0 612 792"><defs><style>.cls-1{fill:#e29d69;stroke:#0808a5;stroke-miterlimit:10;stroke-width:3px;}.cls-2{font-size:12px;font-family:MyriadPro-Regular, Myriad Pro;}.cls-3{letter-spacing:-0.01em;}.cls-4{letter-spacing:-0.01em;}.cls-5{letter-spacing:0.01em;}.cls-6{letter-spacing:0.02em;}.cls-7{letter-spacing:0em;}.cls-8{letter-spacing:0em;}.cls-9{letter-spacing:0em;}.cls-10{letter-spacing:0em;}.cls-11{letter-spacing:0em;}.cls-12{letter-spacing:0.02em;}.cls-13{letter-spacing:0.02em;}.cls-14{letter-spacing:0em;}.cls-15{letter-spacing:-0.01em;}.cls-16{letter-spacing:0.01em;}</style></defs><path class="cls-1" d="M216.75,319.18c-1.85-3.49.69-2.8.69-12.43s20.64-8.25,0-9.63,7.91-19-20.64-1.37c-20.67,12.74-18.57,13.07-18.57,13.07a148.65,148.65,0,0,0-14.45-11.7c-8-5.73-10.32-3.94-10.32-3.94s1.38,12-8.94,8.67S131.45,293,131.45,293h-17.2l-9.63,3.44L97.06,309.5l-12.38,9.63-13.07,8.95v33.7l7.56,14.45s-2.06,0-2.06,15.82v15.82l10.32-3.44,14.44-1.37L120.45,396H134.2l20.64-11.52,16.51-5.5,21.33-14.44,5.5-10.32L203,340.46l5.51-9.63Z"/><path class="cls-1" d="M117.69,481.48s33.71-36.46,53.66,0l8.94,11s7.11,1.84,6.88,7.57c-.59,14.87,8.26,12.38,8.26,12.38s-6.88-.68,8.94,0,7.57,6.88,15.82.69,7.57,1.38,8.26-6.19,7.56-7.57,0-22.7l-7.57-15.13-6.19-14.45-3.44-15.13-4.13-22.7s-6.75-25.53-20.64-29.58c-21.25-6.22-24.62-5.09-24.62-5.09S148,396,134.2,396H120.45s-11.94-3-15.26,5.8,0,19.83,0,19.83l6.31,11s.69-.69,1.38,13.07l.69,13.75-4.13,10.32Z"/><path class="cls-1" d="M235.32,506.24s5.85-1,10.32,0c15.94,3.68,8.26,4.82,15.14,6.19l6.88,1.38h15.82l12.38,2s.92,2.89,6.19-26.81c6.57-37,11-17.19,15.13-34.39s15.83-15.82,4.13-17.2-6.88,11-11.69-1.37,10.32-13.07-4.82-12.39l-15.13.69s7.85,14.08-10.52-.87l-18.37-14.95L251.83,396s7.57-5.88-11-13.85,2.06-2.48-18.58-8-11.69-1.38-20.63-5.51l-8.94-4.12-24.84,15.61,22.41,8.48,16.87,28.19,3.38,18.58s2.81,18.56,10.38,33.7A265.11,265.11,0,0,1,232,493.86Z"/><path class="cls-1" d="M199.55,559.9s0-4.82,17.2-11.7l17.2-6.88s1.83-2.4,16.51-7.56c19.7-6.93,20-6.19,20-6.19L293.8,520l2.06-4.15s8.94,12.4,17.2,12.4,6.19,6.2,26.14,6.2h19.95l10.31,3.42h15.83l8.25,22L396.29,573v39.21s17.89,17.2,6.19,22L390.79,639h0l-2.7.61c-3.68.84-7.27-.81-9.68-3.72-1.25-1.52-5-2.48-13.76-1.71-23.39,2.06-16.51,6.19-23.39,2.06s8.94-3.43-6.88-4.12-.69,2.06-15.82-.69-2.06-3.44-15.13-2.75-6.19-1.38-13.07.69l-6.88,2.06-10.32.69-22.7-9s-3.28-1.37-18.49-2.75l-15.22-1.37H203L187.17,617,172,612.87s-3.44-4.82,11.69-17.2l.69-16.52s0-11,7.57-15.12Z"/><path class="cls-1" d="M270.41,289.37s-39.9,3.39-20,0c7.47-1.26,10.7.17,13.73-4.17a40.12,40.12,0,0,0,3.47-6.65c4.81-11-6.2-2.07,4.81-11s-1.37-.69,11-8.94l12.38-8.26h0c-.69-15.82.69-4.81-.69-15.82s8.26,2.07-1.37-11l-9.63-13.07L280,198.75s-10.32-.69-.69-15.13L289,169.17l9.15-10.32,3.23-2.75h8.26l16.75-9.63s19.71-22.7,36.22,0c0,0,12.38,0,5.5,6.19l-6.88,6.19,13.07,5.51,13.07,10.32,19.1,19.26,8.42,16.51v28.2l-11.7,18.57s-.69,1.38-11,17.89A65,65,0,0,1,366,298.5l-22,14.44s-11.69,6.88-13.07,6.19l-1.37-.68S293.8,301.94,278,302.62l-7.56-13.25Z"/><path class="cls-1" d="M217.44,306.75s-1.65,9.33-8.94,24.08-12.8,28-12.8,28-4.81,8.48,10.87,11.89,34.26,11.4,34.26,11.4,11,1.3,11,13.85c0,11.87,4.13,0,4.13,0l12.38-8.08s1.38,2.76,17.89,0S306,382.15,306,382.15l12.56-17.61,7.81-15.92,6.64-17.1-2.07-12.39-37.77-14.2L278,302.62l-7.56-13.25s-30,1.22-38.44,5.69A55.64,55.64,0,0,0,217.44,306.75Z"/><path class="cls-1" d="M417.62,484.92l-34.4-14.45-17.88-6.88-17.2-8.25S322,429.92,335.76,400.67l15.82-14.81L359.83,370l8.26-18.58,4.13-2.84,14.44,5.6,10.32-.69,3.44,11s15.82,3.43,17.2,26.14c0,0,8.94,17.19,21.32,17.19s13.07,22.7,4.82,27.52l-6.88,22-11,12.38Z"/><path class="cls-1" d="M533.18,440.55l-24.07,3.09L489.85,449H468.52l-26.14,5H438l5.81-18.57s11-18.62-4.82-27.52a139.31,139.31,0,0,0-14-7.2l-7.3-10s0-25.46-17.2-26.14l-6.19-15.92h33L453.39,326s22-9.63,35.08,0L507,319.18s17.89,2.71,3.44,18.53l-4.12,17.19s4.12,7.57,15.13,3.44l.69,18.58,8.25,5.23-1.37,9.21,7.27,1.54a12.7,12.7,0,0,1,9.2,17.1l-1.34,3.38.69,12.38-1.38,7.56Z"/><path class="cls-1" d="M421.06,488.36,414.87,509l-2.76,19.26S408,553,397,555.08l-.69,57.1,10,15.06-8.2,8.76s12,12,33.29-10.75L452,613.55s19.26,6.17,15.14-34.4l.58-22s7.67,5.5,12.49-21.33L485,509l-4.13-13.75s.07-.36.23-1A9.85,9.85,0,0,1,494.86,488c3.27,1.45,8.06,1.34,14.94-3.06,17.19-11,21.32-11,21.32-11V457.4l2.06-16.85-35.35,6.23s8.4,0-16.24,2.22L457,451.19,438,454S420.37,476,421.06,488.36Z"/><path class="cls-1" d="M418.48,221c2.91-3.51,12.77-13.26,23.13,1a2,2,0,0,0,.18.23l6.46,7.68a5,5,0,0,0,2.32,1.53c3.19,1,11.17,3.95,14.17,9.94,3.78,7.57,0,3.44,0,3.44l22.79-9.91a4.92,4.92,0,0,1,2-.41h.26a4.91,4.91,0,0,1,4.91,4.91v8.3a4.89,4.89,0,0,0,.59,2.33l3.64,6.76a4.89,4.89,0,0,1,.59,2.33v10.94a4.8,4.8,0,0,0,.31,1.72l6.45,17.25a4.71,4.71,0,0,1,.19.64l3.14,14a4.94,4.94,0,0,1,0,2l-2.05,10.76a4.9,4.9,0,0,1-3.13,3.69l-10.2,3.75a4.92,4.92,0,0,1-4.42-.52c-3.89-2.58-13.46-7.1-26.1-.52-12.46,6.47-19,11.08-21.59,13A4.71,4.71,0,0,0,440.5,338c-.95,2.49-4.12,8.42-13.25,10.64-9.59,2.33-25.66.84-31.13.23a4.92,4.92,0,0,0-3.46.93l-3.15,2.33a4.89,4.89,0,0,1-5.74.07l-8.91-6.27a4.85,4.85,0,0,1-1.79-2.35l-3.61-10s2.76,1.38-11-3.44a65.75,65.75,0,0,0-21.72-3.62A4.89,4.89,0,0,1,332,322.9h0a4.9,4.9,0,0,1,2.42-5.61l16.3-8.75.37-.22,6.31-4.14A30.26,30.26,0,0,1,368.62,300c2.18-.4,6.15-3.15,13.26-12.51L396,269l.28-.41,6.94-11.37,11.17-17.74a4.88,4.88,0,0,0,.69-1.8l2.39-14.33A4.82,4.82,0,0,1,418.48,221Z"/><path class="cls-1" d="M369.63,333.13,338,326.32a1.71,1.71,0,0,1-.68-.32L336,325a1.73,1.73,0,0,0-2.77,1.54l.13,1.3a1.71,1.71,0,0,1-.07.67l-6,19.69a2,2,0,0,1-.1.26l-7.7,15.69a1.19,1.19,0,0,0-.08.2c-.43,1.26-5.1,14.46-12.53,17.51s-27,6.46-29.57,6.91a1.69,1.69,0,0,1-.55,0l-6.88-1a1.73,1.73,0,0,0-1.21.26l-11.11,7.24a1.76,1.76,0,0,0-.78,1.33l-.26,3.72a1.76,1.76,0,0,0,.41,1.24l7.84,9.23a2.23,2.23,0,0,0,.27.26l22.47,17a1.73,1.73,0,0,0,2.76-1.2l.13-1.23a1.72,1.72,0,0,1,1.65-1.55l17.11-.71a1.73,1.73,0,0,1,1.76,2.12l-1.4,6s-1.91,8.78,3.89,8.52,12.46-4.05,12.72-2.24c.21,1.51-3.1,5.9-4.22,7.34a1.71,1.71,0,0,0-.36,1c0,2-.48,8.87-5.05,13.2l-5.09,4.83a1.64,1.64,0,0,0-.43.67c-1.53,4.28-15.32,43.18-13.2,48.8,0,0-1.48,8.94,9.1,11.92l10.51,3,.16.06,9.4,3.66a1.68,1.68,0,0,0,.63.12h13.73l18.53,1.85a1.63,1.63,0,0,1,.37.08l9.87,3.28a1.71,1.71,0,0,0,.55.09h14.41a1.71,1.71,0,0,1,1.58,1l7.84,17.81a1.73,1.73,0,0,0,3.31-.55h0a1.71,1.71,0,0,1,1-1.41c2.53-1.22,9.71-6.71,13.08-30.34s8.31-29.44,10.06-30.83a1.71,1.71,0,0,0,.63-1.36v-6.47a1.73,1.73,0,0,0-2.46-1.57l-.88.41a1.77,1.77,0,0,1-1.41,0l-68.49-29.16a1.67,1.67,0,0,1-.5-.33c-2.75-2.6-29.46-29-12.28-54.29a2,2,0,0,1,.27-.31l15.52-14.53a1.63,1.63,0,0,0,.27-.31c.64-1,4-6.41,9.87-19.54,4.19-9.43,5.07-14,5.17-16a1.71,1.71,0,0,1,1.62-1.61l6.58-.42a1.73,1.73,0,0,0,1.39-2.59L370.76,334A1.77,1.77,0,0,0,369.63,333.13Z"/><text class="cls-2" transform="translate(329.87 232.8)">Ba<tspan class="cls-3" x="12.29" y="0">r</tspan><tspan x="16.09" y="0">oipa</tspan><tspan class="cls-4" x="38.1" y="0">r</tspan><tspan x="41.96" y="0">a</tspan></text><text class="cls-2" transform="translate(420.75 289.37)">Bisopur</text><text class="cls-2" transform="translate(103.72 353.35)"><tspan class="cls-5">R</tspan><tspan x="6.6" y="0">a</tspan><tspan class="cls-6" x="12.38" y="0">k</tspan><tspan class="cls-7" x="18.22" y="0">halgasi</tspan></text><text class="cls-2" transform="translate(458.58 396.28)">Gutapa<tspan class="cls-8" x="36.73" y="0">r</tspan><tspan class="cls-7" x="40.6" y="0">a</tspan></text><text class="cls-2" transform="translate(371.62 417.05)">bage<tspan class="cls-9" x="25.33" y="0">r</tspan><tspan x="29.3" y="0">h</tspan><tspan class="cls-10" x="35.96" y="0">a</tspan><tspan class="cls-11" x="41.7" y="0">t </tspan></text><text class="cls-2" transform="translate(421.66 532.85)"><tspan class="cls-9">B</tspan><tspan class="cls-11" x="6.55" y="0">emo</tspan><tspan class="cls-12" x="29.16" y="0">r</tspan><tspan x="33.37" y="0">ta</tspan></text><text class="cls-2" transform="translate(239.22 578.12)"><tspan class="cls-5">R</tspan><tspan x="6.6" y="0">ampal</tspan></text><text class="cls-2" transform="translate(149.11 440.51)"><tspan class="cls-13">k</tspan><tspan x="5.84" y="0">anpur</tspan></text><text class="cls-2" transform="translate(244.87 478.88)">Sh<tspan class="cls-14" x="12.58" y="0">a</tspan><tspan class="cls-15" x="18.31" y="0">t</tspan><tspan x="22.21" y="0">gumoj</tspan></text><text class="cls-2" transform="translate(231.97 334.55)">J<tspan class="cls-14" x="4.44" y="0">a</tspan><tspan class="cls-11" x="10.18" y="0">t</tspan><tspan class="cls-4" x="14.15" y="0">r</tspan><tspan x="18.01" y="0">apur</tspan></text><text class="cls-2" transform="translate(333.01 503.27)"><tspan class="cls-16">K</tspan><tspan x="6.62" y="0">h</tspan><tspan class="cls-8" x="13.28" y="0">r</tspan><tspan class="cls-7" x="17.15" y="0">apa</tspan><tspan class="cls-8" x="35.54" y="0">r</tspan><tspan class="cls-7" x="39.41" y="0">a</tspan></text></svg>