<?xml version="1.0" encoding="utf-8"?>
<svg viewBox="0 0 318.74673 433.12134" version="1.1" id="svg753991" width="100%" height="100%" xmlns="http://www.w3.org/2000/svg" xmlns:bx="https://boxy-svg.com" preserveAspectRatio="none"><defs><bx:export><bx:file format="svg"/></bx:export></defs><g id="g850293" style="transform-origin: 120.947px 306.955px;" transform="matrix(9.120473, 0.093498, -0.044937, 4.383497, 32.960354, -78.281297)"><path id="path849985" style="display:inline;fill:blue;fill-opacity:1;stroke:none;stroke-width:2.551;stroke-linecap:square;stroke-linejoin:bevel;stroke-miterlimit:4;stroke-dasharray:none;stroke-opacity:1" d="m 474.65234,1144.0312 c -0.23055,0.1435 -0.31214,0.5407 0.0234,0.9688 -0.29367,1.1509 -2.50929,0.3563 -3.37695,1.4844 -2.11264,0.2767 1.18703,2.2205 -0.56055,2.7812 -0.90368,-0.042 -1.81373,-0.011 -2.7207,-0.019 -0.26873,0.4811 -1.18686,0.1886 -1.61524,0.5918 0.69029,1.1021 0.46887,2.6943 -0.72851,3.3476 -1.26199,0.1244 -2.52883,1.0589 -1.79492,2.4297 0.44976,1.3069 1.0031,2.5796 1.10742,3.9629 -0.0454,1.0895 -0.008,2.184 -0.0195,3.2754 0.37719,1.0303 0.65526,2.3617 1.56836,3.2031 0.12434,0.1539 0.22958,0.3393 0.22656,0.543 -0.54395,1.2295 -3.00425,1.1991 -1.66406,2.7891 0.65918,0.8388 -0.63581,0.6365 -1.14454,0.8535 l -3.29492,0.6973 c -0.66051,1.664 -0.0415,3.0535 1.07618,4.3378 -1.3166,2.3667 -2.63259,4.7349 -3.94922,7.1016 -0.0586,2.8532 -0.28276,5.715 -0.23438,8.5625 0.10167,0.5585 0.20302,1.1173 0.30469,1.6758 -1.16999,0.599 -1.52872,2.0103 -2.04492,3.1113 -0.36737,1.4122 1.69629,1.3677 2.49218,2.0606 1.18606,0.5729 1.70413,2.1401 0.95704,3.2578 -0.67794,1.4584 -0.30547,3.1108 -0.81446,4.6093 -0.21127,1.4094 0.90427,2.7338 0.41992,4.1758 0.093,0.2933 -0.24934,1.454 -0.11328,1.916 0.57642,2.591 1.7242,4.9566 3.11914,7.1954 1.47859,2.4562 1.37041,5.5506 3.12305,7.8711 1.49163,2.4377 1.55035,5.0732 0.39453,7.6503 -1.15963,2.2779 -4.64484,3.4634 -4.01562,6.5743 -2.43224,0.9892 -2.80351,3.1732 -0.71094,4.8047 1.93485,3.65 -5.86014,1.9596 -2.61133,5.2402 3.86634,1.8187 -0.0382,4.8856 -2.86133,4.3457 -2.86348,-0.1119 -4.37428,3.1721 -2.4375,5.3008 0.82069,2.3224 3.92603,4.2382 2.54102,6.9785 -1.61189,1.5884 -4.80118,4.4413 -1.75586,6.3222 3.2163,0.5361 2.64489,4.1337 4.41601,5.9668 1.85904,2.2282 1.1329,5.5159 1.85547,8.2032 l 0.41211,3.9043 6.60252,5.9012 20.43282,-6.4634 11.66219,-15.6751 -3.60182,-19.4912 c -1.01084,-4.2441 -2.02051,-8.4907 -3.07032,-12.7227 -0.62373,-5.6308 -1.34838,-11.7763 1.42383,-16.9824 3.40543,-6.3239 2.87332,-13.9074 0.95899,-20.6074 -0.59271,-1.7496 -1.21469,-3.4905 -1.78907,-5.2461 -0.69055,-3.0924 -1.13872,-6.3042 -2.74804,-9.0977 -1.20631,-1.9424 -2.74023,-3.7857 -3.15821,-6.1133 -0.37617,-1.8033 -0.80392,-3.6318 -0.78125,-5.4785 -0.17642,-3.3404 0.19463,-6.7101 1.34961,-9.8652 0.45948,-2.0467 1.58225,-3.8164 2.36328,-5.7461 1.15605,-1.984 2.52606,-3.8903 3.82618,-5.8047 -0.85777,-0.9225 -2.34911,-1.6146 -2.33399,-3.0567 -0.0756,-0.5279 0.15079,-1.3191 -0.10547,-1.6914 -0.22299,-1.0427 -0.44298,-1.9351 -0.79297,-3.0078 -0.12774,-1.3143 -2.05624,-0.6808 -1.96289,0.6094 -0.67653,0.9988 -1.76793,0.034 -2.16797,-0.7305 -0.71039,0.291 -1.65688,0.628 -2.50781,0.7149 -0.98116,0.6309 -1.77586,0.2682 -2.35156,-0.416 1.15071,-0.055 2.6367,-0.158 1.45117,-1.4258 -0.2403,-0.3549 0.72321,-1.9997 -0.50586,-1.2481 -1.42522,0.3345 -2.7122,0.1946 -4.19922,0.5821 -1.09818,-0.085 -2.13485,-0.5976 -1.93945,-1.9278 0.21506,-0.8606 -1.20626,-1.3037 -0.75,-2.5273 -0.26298,-0.5897 -0.64249,-0.7001 -0.87305,-0.5567 z" transform="scale(0.26458334)"/><path id="path849824" style="display:inline;fill:black;fill-opacity:1;stroke:none;stroke-width:2.551;stroke-linecap:square;stroke-linejoin:bevel;stroke-miterlimit:4;stroke-dasharray:none;stroke-opacity:1" d="M 450.78125 1032.8789 C 449.50063 1033.2648 448.36166 1034.4414 447.00391 1034.3086 C 446.03245 1034.6574 445.04525 1034.828 444.05664 1034.959 C 443.13164 1035.3503 442.67041 1036.2063 443.3457 1037.0664 C 443.00479 1037.9258 443.1644 1038.7274 443.34375 1039.668 C 442.81809 1040.7253 441.62633 1038.594 440.86914 1039.498 C 441.18246 1040.3264 440.18382 1041.1505 440.27344 1042.166 C 440.23944 1043.1297 439.51833 1043.8522 439.51758 1044.8047 C 439.56898 1046.0215 437.73642 1045.6142 438.21094 1046.8496 C 438.21894 1047.9791 438.76116 1049.0134 438.56055 1050.0801 C 438.12454 1050.87 436.21509 1052.0284 436.1582 1050.4316 C 436.32223 1049.3443 436.2101 1048.242 435.92969 1047.1797 C 435.85219 1046.6245 435.69601 1045.3117 435.0293 1046.3145 C 434.52643 1047.1162 434.09963 1047.8737 433.07031 1047.6738 C 432.41067 1047.915 432.57454 1049.1878 432.1543 1048.0312 C 431.07902 1047.2247 430.40883 1045.787 429.13672 1045.3652 C 427.85338 1045.5017 427.6279 1046.7443 427.86133 1047.8223 C 428.03367 1048.5038 427.36093 1048.7584 427.26172 1049.248 C 427.95356 1050.927 426.53515 1052.3977 425.58203 1053.6152 C 424.61863 1054.6771 424.9 1056.1523 425.22266 1057.4023 C 425.41503 1058.3591 424.73268 1060.3361 423.51953 1059.5996 C 422.03558 1058.6663 421.06677 1061.3551 422.41406 1062.166 C 423.25255 1063.4016 424.83307 1061.9344 425.65625 1062.8926 C 426.79959 1064.6654 424.61998 1065.2649 423.27734 1065.4121 C 421.93678 1066.1117 420.68361 1066.541 419.17773 1066.7969 C 417.39164 1066.8759 418.39152 1068.7102 419.33398 1069.2559 C 420.2203 1071.1951 420.69376 1072.2397 419.7207 1073.1133 C 419.7207 1073.1133 419.7207 1073.1152 419.7207 1073.1152 C 419.7207 1073.1152 419.71875 1073.1152 419.71875 1073.1152 C 419.22828 1073.976 418.43379 1074.6318 419.10938 1075.6934 C 420.2613 1076.5533 420.39077 1078.7576 421.82812 1079.0312 L 424.56836 1079.0312 C 425.88409 1079.762 427.33824 1078.4367 428.49609 1077.8789 C 430.25093 1077.3389 430.44468 1075.0483 430.42578 1073.5137 C 430.02965 1072.0287 431.39782 1070.0885 432.91016 1071.1543 C 434.08109 1071.1543 435.39994 1070.8177 436.23828 1069.959 L 436.23828 1069.957 C 435.04089 1069.4617 436.1039 1068.5422 435.80664 1067.2207 C 435.5364 1066.0082 434.19163 1064.6732 435.31445 1063.4805 C 434.39399 1063.1947 435.93988 1062.5444 434.85742 1062.1797 C 435.67422 1060.9747 437.40966 1060.33 438.6543 1059.4629 C 439.46047 1059.4013 440.06026 1058.9559 440.89062 1059.1094 C 441.87051 1059.0168 442.81722 1059.1994 443.60938 1059.8242 C 443.64339 1058.9611 444.52756 1059.1749 445.19336 1059.5215 C 445.805 1060.7013 446.05248 1058.6338 446.85938 1059.6777 C 448.03844 1059.5715 448.94528 1061.3357 449.86133 1059.998 C 450.86188 1060.4651 450.60427 1059.0082 451.31055 1059.2285 C 452.03247 1058.2513 452.83815 1056.4668 454.26953 1057.4258 C 454.5152 1056.3087 456.53835 1057.6534 456.05469 1056.6641 C 457.47171 1055.8395 457.94967 1054.2437 457.68359 1052.7715 C 458.67141 1052.6146 459.28977 1052.0157 460.08789 1051.3672 C 459.8717 1050.0764 458.64261 1049.0634 458.80664 1047.7852 C 458.99448 1046.3875 459.9963 1045.1755 459.55859 1043.8711 C 460.44969 1043.0786 461.50351 1042.074 462.05078 1041.1328 C 463.0282 1041.4227 465.58055 1040.9948 464.95508 1042.7559 C 464.60094 1044.4543 467.55049 1044.6463 467.6582 1042.9375 C 466.79549 1042.7262 467.44081 1041.6009 466.73438 1041.0684 C 465.83644 1040.5735 466.15918 1039.7399 466.81641 1039.1914 C 466.88104 1038.1793 467.17773 1036.4631 466.12891 1035.8281 C 464.75312 1036.562 464.1114 1035.0379 463.88867 1033.8652 C 463.66606 1034.4284 463.00309 1034.6692 462.75391 1035.25 C 462.07748 1035.1789 462.20469 1035.9896 462.32812 1036.5449 C 462.38107 1037.9563 460.90695 1035.6051 460.78906 1036.8105 C 460.26685 1038.0124 461.17782 1039.1351 461.36328 1040.1855 C 460.61289 1041.2649 459.17019 1039.9864 458.60742 1039.25 C 457.5679 1038.9291 456.66754 1038.202 455.58398 1038.832 C 454.41978 1038.6003 453.3225 1037.5693 453.82812 1036.3711 C 453.20186 1036.2301 452.57307 1036.0326 452.16602 1035.3711 C 450.83713 1035.2418 452.43938 1034.0774 451.64258 1033.5078 C 451.22709 1033.7981 450.69523 1033.5079 450.78125 1032.8789 z " transform="scale(0.26458334)"/><path id="path849665" style="display:inline;fill:red;fill-opacity:1;stroke:none;stroke-width:2.551;stroke-linecap:square;stroke-linejoin:bevel;stroke-miterlimit:4;stroke-dasharray:none;stroke-opacity:1" d="M 483.99609 1015.5234 C 483.32561 1016.5636 482.50477 1017.4992 481.22461 1017.5918 C 480.13127 1017.9146 480.28373 1016.6073 479.83008 1016.1836 C 478.83058 1016.2826 478.93302 1018.2076 477.63672 1017.9551 C 477.17698 1018.558 476.8084 1018.3457 476.16992 1018.123 C 475.87172 1018.6614 477.55154 1020.0168 476.41016 1020.0508 C 475.80751 1019.7325 474.36614 1018.0898 474.18359 1019.5957 C 473.10957 1020.4667 474.69002 1021.4974 475.4082 1021.4785 C 475.76726 1022.6065 476.21173 1023.7091 477.21875 1024.3203 C 477.40848 1024.9929 478.05215 1025.5993 478.5625 1025.041 C 479.60814 1025.7409 480.14384 1026.949 480.49609 1028.1133 C 481.39558 1028.8015 481.41954 1030.4108 481.04688 1031.2852 C 480.43591 1031.7281 480.02624 1031.8573 479.32227 1031.4316 C 478.21483 1031.604 477.43073 1032.8519 476.38867 1033.4297 C 475.24982 1034.1947 474.23096 1032.6609 473.00586 1032.8594 C 471.89162 1033.2366 470.89289 1032.0326 469.79297 1032.666 C 468.68213 1032.6433 467.36511 1031.4645 466.75195 1032.8906 C 465.97658 1033.7921 464.5552 1032.1287 464.14062 1033.1406 C 464.07713 1033.3704 464.1676 1033.7692 463.88867 1033.8652 C 464.1114 1035.0379 464.75312 1036.562 466.12891 1035.8281 C 467.17773 1036.4631 466.88104 1038.1793 466.81641 1039.1914 C 466.15918 1039.7399 465.83643 1040.5735 466.73438 1041.0684 C 467.44081 1041.6009 466.79548 1042.7262 467.6582 1042.9375 C 468.85223 1043.1761 470.51074 1043.073 470.66797 1044.668 C 471.41118 1045.762 472.04642 1047.0437 472.77734 1048.1875 C 472.93102 1049.5542 474.06177 1048.6212 474.78906 1048.9609 C 475.55835 1050.0267 476.37411 1050.9094 477.6582 1051.4238 C 478.5792 1052.5039 479.70147 1051.6617 480.13086 1050.8555 C 481.64509 1049.8454 480.32317 1052.5532 481.48242 1052.7988 C 482.37609 1052.8248 482.98885 1053.7505 483.80273 1053.0781 C 484.89763 1053.0451 485.82635 1053.8109 486.88477 1054.0078 C 487.67495 1054.8743 489.13719 1054.8454 489.62891 1053.6328 C 489.99208 1052.7425 490.70337 1052.2052 491.64844 1052.0586 C 492.7256 1051.4368 493.15159 1053.3818 494.11719 1052.4668 C 494.61408 1051.6487 494.92521 1052.3467 495.36133 1052.7305 C 496.06005 1052.9512 498.04582 1052.4605 497.52734 1053.6602 C 496.64528 1054.5857 498.12979 1053.977 498.62109 1053.873 C 498.78815 1054.1957 497.26476 1055.0676 497.69336 1055.9512 C 498.06126 1055.9622 499.07542 1055.0878 498.77344 1056.0977 C 499.9062 1056.3775 499.66498 1057.4186 499.07812 1058.125 C 500.29658 1058.206 503.85916 1060.6365 503.71289 1057.8652 C 503.44398 1055.7439 505.09114 1051.7748 502.33008 1051.0039 C 500.23199 1052.1649 497.84899 1051.2494 498.32812 1048.582 C 496.71068 1047.091 497.13737 1044.6185 499.71875 1045.0469 C 500.38289 1042.6652 502.49303 1043.6754 504.33203 1043.5469 C 506.05965 1041.1351 501.95517 1039.7118 499.99023 1039.5391 C 498.31602 1037.9676 501.12056 1036.1364 502.49219 1035.1992 C 503.74816 1033.0724 508.14791 1032.7761 506.51172 1029.5625 C 504.99911 1027.6705 506.66335 1026.5713 506.43945 1024.3984 C 505.06998 1023.9839 503.73549 1023.4638 502.42773 1022.8848 C 499.20478 1022.4931 502.67981 1017.6214 499.21875 1017.8184 C 498.03731 1018.2209 496.78092 1018.0577 495.54297 1018.0879 C 493.46623 1018.4987 491.81261 1016.8244 489.86914 1016.6074 C 487.95001 1016.5474 485.30226 1017.3747 483.99609 1015.5234 z " transform="scale(0.26458334)"/><path style="display:inline;fill:yellow;fill-opacity:1;stroke:none;stroke-width:2.551;stroke-linecap:square;stroke-linejoin:bevel;stroke-miterlimit:4;stroke-dasharray:none;stroke-opacity:1" d="m 438.57812,1069.1777 c -0.71098,0.051 -1.77645,0.679 -2.33984,0.7813 -0.83834,0.8587 -2.15719,1.1953 -3.32812,1.1953 -1.51234,-1.0658 -2.88051,0.8744 -2.48438,2.3594 0.0189,1.5346 -0.17485,3.8252 -1.92969,4.3652 -1.15785,0.5578 -2.612,1.883 -3.92773,1.1523 h -2.74024 c -1.43735,-0.2736 -1.56682,-2.4779 -2.71874,-3.3378 -0.67558,-1.0616 0.1189,-1.7174 0.60937,-2.5782 -1.65549,-0.2464 -3.57932,-3.3378 -4.89063,-2.0156 -0.56847,2.1873 -2.40586,4.1952 -1.42382,6.5801 0.94257,1.8297 0.54445,4.0183 -1.39649,5.0293 -2.12753,1.1109 -1.96994,3.5497 -2.66015,5.5078 -0.11452,0.4767 -0.907,2.5397 -0.77539,3.0195 1.1947,0.9838 2.32088,2.0254 3.33984,3.1953 0.73002,1.425 1.73333,2.566 2.60156,3.7305 l 0.002,0 c 1.09722,-0.3417 2.10833,-1.7763 3.23047,-0.3946 0.93547,0.2257 0.98764,0.7339 0.89844,1.6016 -0.085,1.4074 2.481,1.9865 2.99414,0.6309 0.97765,-1.4183 0.90785,0.9975 1.31445,1.5371 0.91516,-0.3753 1.12391,0.2871 1.33594,0.9824 1.64259,0.4322 -0.37225,2.1632 1.04492,2.3594 1.5563,0.1625 0.50734,2.524 1.91211,3.1074 0.65757,-0.7216 1.7052,0.2741 2.34961,-0.5567 0.60892,0.055 1.27623,-0.1462 1.81836,0.1875 0.0227,0.7232 1.28221,0.5988 0.91406,1.2774 -0.33297,1.3038 1.73318,0.7959 0.96094,-0.098 -0.91566,-0.6232 -0.16682,-2.1169 0.65039,-1.0351 1.3663,-0.1576 2.51078,0.6975 2.54102,2.1054 1.23322,0.76 -1.26959,2.54 0.21875,2.7188 1.39113,1.3443 2.51362,-1.2919 2.58203,-2.4356 0.27893,-1.9021 1.68805,-0.1646 2.5293,0.2383 0.86479,-0.6522 1.65093,-0.721 2.60156,-0.789 0.55638,0.8409 0.0857,1.6863 1.29297,1.955 1.00804,0.2102 2.53497,1.2012 2.20312,2.1875 -1.45436,-1.0684 -0.93353,1.2608 0.0469,1.5918 0.93177,0.061 2.42324,-1.0643 2.30078,0.5039 -0.41099,1.8022 1.79766,-0.9441 1.42383,0.4668 1.09984,-0.4891 2.88855,0.2537 3.43945,-1.166 0.20825,-1.4218 1.58191,-1.6367 2.51367,-2.3691 0.76498,-1.0533 2.16354,-1.1263 3.04492,-2.0391 0.64993,-0.9124 1.21552,-1.7935 2.41797,-2.0078 0.33374,-1.6034 1.98174,-0.7378 2.9375,-1.3808 0.42558,-1.2557 -0.49051,-2.5337 -0.10156,-3.8145 0.54346,-2.1441 1.93632,-3.787 2.98242,-5.3672 0.002,-0 0.004,-0 0.006,-0 l -0.006,-0 c -0.0556,-0.7532 -0.79883,-0.7591 -1.16015,-0.25 -2.33182,-0.46 -2.06244,2.0826 -3.16602,3.3105 -1.35761,1.2081 -1.79862,-0.844 -1.05859,-1.6796 -0.0544,-1.0991 0.14428,-2.2516 -0.17774,-3.293 0.70583,-0.553 0.57364,-1.6587 -0.56445,-1.4629 -1.08673,-0.5661 -2.02639,-0.1757 -1.95117,1.2051 -0.78894,-0.8407 -1.35916,0.7078 -1.9668,-0.049 -0.16705,-1.3798 -1.82483,-0.064 -2.71094,0.041 -0.45876,-1.4779 -2.35344,-1.0776 -3.57226,-0.9454 -0.0265,0.8552 -1.86853,1.1599 -1.24805,0.039 1.92151,-0.7301 0.17834,-2.2427 0.48633,-3.4414 1.06632,-0.8569 -0.43747,-1.4458 -0.25,-2.1836 1.66424,-0.8223 -0.23092,-2.7476 1.23633,-3.2637 1.31187,0.3202 1.37535,-1.2459 2.39257,-1.6504 -0.0983,-1.1117 0.75494,-2.9948 -0.7207,-3.3867 0.55363,-1.3233 -0.97442,-1.597 -1.72265,-1.8125 -1.01156,1.5997 -3.35446,0.2097 -4.66407,-0.3769 -1.10373,-0.7826 -1.9826,-1.156 -2.45508,-2.1602 -1.59318,-0.6365 -3.64446,-0.069 -5.01953,1.0489 -1.2006,1.0208 -0.60377,-0.3535 -0.61132,-1.0469 0.0643,-0.7856 -0.0662,-1.478 -0.17579,-2.1973 -0.20938,-1.5813 -1.32151,-3.1807 -0.54296,-4.6523 0.0127,-0.6218 -0.2863,-0.8 -0.7129,-0.7696 z" transform="scale(0.26458334)" id="path849572"/><path style="display:inline;fill:cyan;fill-opacity:1;stroke:none;stroke-width:2.551;stroke-linecap:square;stroke-linejoin:bevel;stroke-miterlimit:4;stroke-dasharray:none;stroke-opacity:1" d="m 492.02344,1051.9355 c -0.11662,0.01 -0.24036,0.045 -0.375,0.1231 -0.94507,0.1466 -1.65636,0.6839 -2.01953,1.5742 -0.49172,1.2126 -1.95396,1.2415 -2.74414,0.375 -1.05842,-0.1969 -1.98714,-0.9625 -3.08204,-0.9297 -0.81388,0.6724 -1.42664,-0.2532 -2.32031,-0.2793 0.96465,1.3986 -0.10075,2.9231 0.60742,4.4317 0.55457,1.1167 0.75429,2.7322 0.47657,3.6523 1.32483,0.4106 0.27864,1.1459 -0.19532,1.6699 0.7242,0.8216 -0.11454,1.5264 -0.11718,2.3164 0.7192,0.602 1.73579,-0.9528 2.08789,0.3555 -0.2041,0.8114 -0.46796,2.013 0.66601,2.209 -0.32919,1.0691 0.71361,0.9915 1.52149,0.9473 1.50731,0.2679 -1.25605,1.9912 -0.16407,2.6543 1.16584,1.0304 0.15374,2.0646 -0.83593,2.4726 -0.55522,0.1603 -1.85833,-0.3978 -0.99414,0.3945 0.87307,-0.03 2.19842,1.4849 0.58203,1.2032 -1.18118,0.8007 0.45044,2.7098 -0.28907,3.334 -1.18964,-0.085 -2.37206,-0.3561 -3.63476,-0.4727 -0.80844,0.5894 -1.00172,1.9623 -0.89453,2.8359 -0.0703,1.6379 -0.48438,3.3219 -1.50977,4.6231 -0.16478,1.1013 -1.49054,2.9292 -0.1914,3.664 0.35603,0.9893 1.18696,2.0618 -0.0488,2.6602 -0.52838,-0.2529 -0.14366,0.1027 -0.47656,0.4941 v 0 c 0.65911,1.1617 1.80771,-0.7909 2.74023,-0.2149 -0.22526,1.0127 -0.94785,1.9881 -0.70898,3.1075 0.33297,1.236 0.92138,2.3092 1.79687,3.2519 0.79419,0.9107 1.48532,2.0455 2.75781,2.3184 0.96197,0.5679 2.09027,0.2793 2.98242,-0.2793 1.26703,-0.6802 2.24646,-1.982 3.76954,-2.1074 0.83554,-0.08 1.475,-0.8213 2.29296,-0.7559 1.70224,0.3587 0.76266,-1.7476 0.39454,-2.5684 -0.43272,-0.9838 -1.29636,-2.0131 -0.64258,-3.1308 0.49878,-0.8573 0.96177,-1.6947 1.06836,-2.707 0.20938,-1.4341 1.79641,-1.3869 2.80664,-1.9375 1.9463,-0.6759 2.91447,0.1111 3.54297,1.0839 4.2e-4,-0 -4.3e-4,-0 0,-0 0.6994,-1.6861 0.57156,-3.414 0.96289,-5.6504 1.51343,-2.21 -0.0709,-3.7597 -2.45703,-3.539 -1.90095,-0.7478 -4.09547,-1.2129 -5.4668,-2.8516 -0.84975,-1.0539 -0.0307,-4.6289 1.71484,-3.5273 1.41249,0.9425 1.28934,3.7158 3.21875,3.6894 0.96548,-0.7522 1.72927,-1.2399 2.45899,-2.3164 0.83592,-1.2379 4.82192,-2.9195 2.80078,-4.7383 -0.79673,-0.6586 -1.69561,-1.1788 -2.5293,-1.7812 -1.60089,-0.9639 -3.60873,-1.2055 -5.41406,-1.3359 -2.0499,0.603 -4.16825,0.3837 -6.23047,0.7265 -2.08857,1.1329 -4.15292,-1.9487 -1.95898,-3.2265 1.81946,-1.2798 3.83135,-1.8294 5.66601,-3.254 1.78417,-0.8673 3.2736,-2.7784 5.43945,-2.371 v -0 c 0.58687,-0.7064 0.82808,-1.7475 -0.30468,-2.0273 0.30198,-1.0099 -0.71218,-0.1359 -1.08008,-0.1465 -0.4286,-0.8836 1.09479,-1.7555 0.92773,-2.0782 -0.4913,0.104 -1.97581,0.7127 -1.09375,-0.2128 0.51848,-1.1997 -1.46729,-0.709 -2.16601,-0.9297 -0.43612,-0.3838 -0.74725,-1.0818 -1.24414,-0.2637 -0.8449,0.8006 -1.2774,-0.588 -2.09375,-0.5313 z" transform="scale(0.26458334)" id="path849446"/><path id="path849227" style="display:inline;fill:coral;fill-opacity:1;stroke:none;stroke-width:2.551;stroke-linecap:square;stroke-linejoin:bevel;stroke-miterlimit:4;stroke-dasharray:none;stroke-opacity:1" d="M 498.61523 1086.9707 C 498.24089 1086.9769 497.81665 1087.0537 497.33008 1087.2227 C 496.31985 1087.7733 494.73282 1087.7261 494.52344 1089.1602 C 494.41685 1090.1725 493.95386 1091.0099 493.45508 1091.8672 C 492.8013 1092.9849 493.66494 1094.0142 494.09766 1094.998 C 494.46578 1095.8188 495.40535 1097.9251 493.70312 1097.5664 C 492.88516 1097.501 492.2457 1098.2421 491.41016 1098.3223 C 489.88708 1098.4477 488.90764 1099.7495 487.64062 1100.4297 C 486.74847 1100.9883 485.62017 1101.2769 484.6582 1100.709 C 483.38571 1100.4361 482.69458 1099.3013 481.90039 1098.3906 C 481.0249 1097.4479 480.43649 1096.3747 480.10352 1095.1387 C 479.86465 1094.0193 480.58724 1093.0438 480.8125 1092.0312 C 479.87998 1091.4552 478.73138 1093.4078 478.07227 1092.2461 C 477.71661 1092.3791 477.84572 1091.7493 477.45703 1092.0312 C 476.61805 1092.708 476.59834 1093.8897 475.95703 1094.6777 C 475.36856 1095.5093 474.27156 1095.2618 473.48633 1095.707 C 472.77941 1096.6233 471.68617 1095.7924 471 1096.2773 C 470.3218 1096.921 469.62628 1097.5515 468.91406 1098.1621 C 467.86796 1099.7423 466.4751 1101.3852 465.93164 1103.5293 C 465.54269 1104.8101 466.45878 1106.0882 466.0332 1107.3438 C 465.07744 1107.9868 463.42944 1107.1212 463.0957 1108.7246 C 461.89325 1108.9389 461.32766 1109.82 460.67773 1110.7324 C 459.79635 1111.6452 458.39779 1111.7182 457.63281 1112.7715 C 456.70105 1113.5039 455.32739 1113.7188 455.11914 1115.1406 C 454.56824 1116.5603 452.77953 1115.8175 451.67969 1116.3066 C 451.67943 1116.3076 451.67995 1116.3076 451.67969 1116.3086 C 451.2647 1116.4704 450.8648 1117.0805 451.3457 1117.4434 C 452.63392 1117.8645 451.8373 1119.053 452.0293 1119.9277 C 451.00939 1121.1225 453.37445 1121.7328 452.75586 1122.8164 C 451.45132 1123.0228 449.92811 1123.0889 448.97461 1122.0703 C 448.89675 1120.107 446.21205 1122.3745 447.96484 1122.6426 C 448.4419 1122.7204 450.32359 1123.2261 449.35547 1123.9277 C 448.08041 1122.7707 447.24604 1124.8306 447.97852 1125.7539 C 448.98455 1125.5615 449.47029 1123.9867 450.5332 1123.998 C 451.33828 1123.2163 451.73237 1124.4047 451.85938 1124.9863 C 451.90322 1125.9565 451.76994 1126.9526 451.93359 1127.9043 C 452.66146 1129.301 451.38313 1130.3018 450.02148 1130.5312 C 448.53889 1130.0187 448.59324 1131.6746 449.57422 1132.2285 C 450.58479 1133.2241 451.28348 1134.5838 452.41016 1135.4453 C 453.26138 1136.2555 454.273 1136.6591 454.82617 1137.7715 C 454.42811 1138.9271 452.55557 1138.298 451.58008 1138.793 C 450.48647 1139.5488 452.35233 1140.1284 452.79102 1140.6719 C 453.85888 1141.1824 454.99632 1141.5391 455.79883 1142.3438 C 456.85687 1143.2129 457.69894 1144.3553 458.20312 1145.623 C 458.44729 1146.7497 459.1956 1146.3764 459.39062 1145.5332 C 460.09926 1144.562 460.54075 1142.3483 462.11133 1142.8359 C 463.69854 1143.3396 463.4576 1145.0469 464.12695 1146.2578 C 464.59645 1147.6201 465.30031 1148.8683 466.40234 1149.8359 C 466.83072 1149.4327 467.74885 1149.7252 468.01758 1149.2441 C 468.92455 1149.2517 469.8346 1149.2221 470.73828 1149.2637 C 472.48586 1148.703 469.18619 1146.7591 471.29883 1146.4824 C 472.16649 1145.3543 474.38211 1146.1489 474.67578 1144.998 C 474.00461 1144.1419 474.99943 1143.4066 475.52539 1144.5859 C 475.06913 1145.8095 476.49045 1146.2527 476.27539 1147.1133 C 476.07999 1148.4435 477.11666 1148.956 478.21484 1149.041 C 479.70186 1148.6535 480.98884 1148.7935 482.41406 1148.459 C 483.64313 1147.7074 482.67962 1149.3521 482.91992 1149.707 C 484.10545 1150.9748 482.61946 1151.0776 481.46875 1151.1328 C 482.04445 1151.817 482.83915 1152.1797 483.82031 1151.5488 C 484.67124 1151.4619 485.61773 1151.125 486.32812 1150.834 C 486.72816 1151.5983 487.81956 1152.5633 488.49609 1151.5645 C 488.40274 1150.2743 490.33124 1149.6408 490.45898 1150.9551 C 490.80897 1152.0278 491.02896 1152.9202 491.25195 1153.9629 C 491.50821 1154.3352 491.28183 1155.1264 491.35742 1155.6543 C 491.3423 1157.0963 492.83364 1157.7884 493.69141 1158.7109 C 493.69141 1158.7109 493.69336 1158.7109 493.69336 1158.7109 C 495.82883 1156.2426 496.43896 1152.2008 496.20508 1148.6523 C 495.82059 1147.5668 495.13926 1146.7608 494.41016 1145.8945 C 493.5945 1144.7768 492.62091 1143.8952 491.7207 1142.8652 C 490.87636 1141.9954 490.00737 1141.1933 489.40234 1140.1465 C 489.20445 1139.5322 489.16533 1138.8849 489.20312 1138.1367 C 489.46687 1136.8543 490.27367 1135.3382 491.67969 1135.252 C 493.41808 1135.324 493.49702 1133.2797 494.72461 1132.5312 C 495.84524 1131.5978 497.24639 1131.2257 498.5332 1130.6074 C 499.72096 1130.4919 501.29297 1131.0106 502.43359 1131.0371 C 503.79967 1130.7629 504.63849 1129.8542 505.54297 1128.9023 C 506.47772 1127.9725 506.61692 1126.4907 506.52734 1125.2812 C 506.32193 1124.0342 505.34389 1123.2348 504.10742 1122.957 C 502.58741 1122.1211 501.06267 1122.905 499.75586 1123.5039 C 498.44406 1124.3937 497.07855 1123.1339 495.8457 1123.6074 C 494.33393 1123.045 492.37129 1121.5965 492.07422 1119.7324 C 491.32534 1117.8002 492.36844 1115.1147 494.61719 1115.0996 C 495.77826 1115.5293 497.06511 1115.2384 498.28711 1115.3223 C 500.75597 1115.4958 502.32759 1117.774 504.74414 1118.0371 C 506.56886 1118.7654 508.52623 1119.0772 510.48633 1118.8633 C 512.48989 1119.2323 513.42595 1114.8792 510.91211 1115.002 C 509.91541 1114.5995 508.82905 1114.7608 507.76367 1114.7305 C 506.4623 1114.5892 505.13546 1115.0718 503.88281 1114.7305 C 502.21933 1115.1861 500.80162 1113.9343 502.19336 1112.4316 C 503.31546 1109.8989 505.7695 1108.3912 507.15625 1106.0527 C 508.25076 1104.3918 508.80022 1102.4012 509.84961 1100.332 L 509.84961 1098.5371 C 510.25655 1096.8568 511.00412 1095.1335 510.82422 1093.334 C 510.90842 1092.1096 509.72158 1090.9061 508.4707 1091.0625 C 507.07145 1090.9027 505.65965 1090.5223 504.26758 1090.1719 C 503.19396 1089.5645 500.30989 1090.1034 500.87305 1088.3066 C 500.40167 1087.577 499.73828 1086.9521 498.61523 1086.9707 z " transform="scale(0.26458334)"/><path id="path848920" style="display:inline;fill:lime;fill-opacity:1;stroke:none;stroke-width:2.551;stroke-linecap:square;stroke-linejoin:bevel;stroke-miterlimit:4;stroke-dasharray:none;stroke-opacity:1" d="m 416.82031,1097.1855 c -0.10087,-0.01 -0.20073,-0.01 -0.30078,0.012 v -0 c -0.66697,0.113 -1.31815,0.7552 -2.00391,0.9688 3.4586,3.9457 4.93949,9.1067 5.88282,14.1601 0.84835,3.3405 1.67994,6.6891 1.69336,10.1582 0.28271,3.7181 -0.0184,7.71 2.04882,11.0039 1.23651,3.0615 3.36645,5.6054 4.98829,8.4473 1.34196,4.3965 1.20339,9.0969 2.7832,13.4355 0.98188,2.4533 0.15741,5.2388 -1.10352,7.4239 -2.19802,3.0185 -3.70044,6.5356 -6.46679,9.123 -0.35263,0.4053 -0.70821,0.8102 -1.00196,1.2617 -2.26004,3.7122 0.33706,8.1884 -1.65429,11.9649 -1.10718,2.6433 -3.13948,4.9452 -5.95508,5.7578 -3.49179,0.7861 -4.12188,5.375 -1.82813,7.709 3.00756,4.9636 7.13576,9.3936 8.81836,15.0508 0.34394,2.8897 1.72504,6.3287 -0.43164,8.8378 -2.89633,4.0472 -5.86713,8.2944 -7.125,13.1719 -0.62237,4.466 -1.91502,8.8192 -3.34765,13.0801 -0.94507,1.7924 -2.01629,3.5157 -3.0625,5.25 -0.70175,4.6753 -1.61802,9.3579 -1.66016,14.0977 0.3292,3.663 0.34274,7.4495 -0.59961,11.0253 -1.34321,3.2484 -2.11687,6.7364 -2.0957,10.2579 -0.33978,3.9161 -0.8045,7.8237 -1.18555,11.7324 -0.39662,2.3574 -0.8932,4.6967 -1.39648,7.0332 l 1.25194,17.4429 24.46389,3.2326 29.43581,-21.4928 3.25265,-15.2237 -0.41211,-3.9043 c -0.72257,-2.6873 0.004,-5.975 -1.85547,-8.2032 -1.77112,-1.8331 -1.19971,-5.4307 -4.41601,-5.9668 -3.04532,-1.8809 0.14397,-4.7338 1.75586,-6.3222 1.38501,-2.7403 -1.72033,-4.6561 -2.54102,-6.9785 -1.93678,-2.1287 -0.42598,-5.4127 2.4375,-5.3008 2.82308,0.5399 6.72767,-2.527 2.86133,-4.3457 -3.24881,-3.2806 4.54618,-1.5902 2.61133,-5.2402 -2.09257,-1.6315 -1.7213,-3.8155 0.71094,-4.8047 -0.62922,-3.1109 2.85599,-4.2964 4.01562,-6.5743 1.15582,-2.5771 1.0971,-5.2126 -0.39453,-7.6503 -1.75264,-2.3205 -1.64446,-5.4149 -3.12305,-7.8711 -1.39494,-2.2388 -2.54272,-4.6044 -3.11914,-7.1954 -0.13606,-0.462 0.20626,-1.6227 0.11328,-1.916 0.48435,-1.442 -0.63119,-2.7664 -0.41992,-4.1758 0.50899,-1.4985 0.13652,-3.1509 0.81446,-4.6093 0.74709,-1.1177 0.22902,-2.6849 -0.95704,-3.2578 -0.79589,-0.6929 -2.85955,-0.6484 -2.49218,-2.0606 0.5162,-1.101 0.87493,-2.5123 2.04492,-3.1113 -0.10167,-0.5585 -0.20302,-1.1173 -0.30469,-1.6758 -0.0484,-2.8475 0.17579,-5.7093 0.23438,-8.5625 1.31663,-2.3667 2.63262,-4.7349 3.94922,-7.1016 -1.11769,-1.2843 -1.73669,-2.6738 -1.07618,-4.3378 l 3.29492,-0.6973 c 0.50873,-0.217 1.80372,-0.015 1.14454,-0.8535 -1.34019,-1.59 1.12011,-1.5596 1.66406,-2.7891 0.003,-0.2037 -0.10222,-0.3891 -0.22656,-0.543 -0.9131,-0.8414 -1.19117,-2.1728 -1.56836,-3.2031 0.0113,-1.0914 -0.0258,-2.1859 0.0195,-3.2754 -0.10432,-1.3833 -0.65766,-2.656 -1.10742,-3.9629 -0.73391,-1.3708 0.53293,-2.3053 1.79492,-2.4297 1.19735,-0.6532 1.41875,-2.2455 0.72851,-3.3476 -1.10203,-0.9676 -1.80589,-2.2158 -2.27539,-3.5781 -0.66935,-1.2109 -0.42841,-2.9182 -2.01562,-3.4219 -1.57058,-0.4876 -2.01207,1.7261 -2.72071,2.6973 -0.19502,0.8432 -0.94333,1.2163 -1.1875,0.09 -0.50418,-1.2677 -1.34625,-2.4102 -2.40429,-3.2793 -0.80251,-0.8046 -1.93995,-1.1614 -3.00781,-1.6719 -0.43869,-0.5435 -2.30455,-1.1231 -1.21094,-1.8789 0.97549,-0.495 2.84803,0.1341 3.24609,-1.0215 -0.55317,-1.1124 -1.56479,-1.5159 -2.41601,-2.3261 -1.12668,-0.8615 -1.82537,-2.2212 -2.83594,-3.2168 -0.98098,-0.5539 -1.03533,-2.2098 0.44726,-1.6973 1.36165,-0.2294 2.63998,-1.2302 1.91211,-2.627 -0.16365,-0.9517 -0.0304,-1.9477 -0.0742,-2.9179 -0.12701,-0.5816 -0.5211,-1.77 -1.32618,-0.9883 -1.06291,-0.011 -1.54865,1.5635 -2.55468,1.7559 -0.73248,-0.9233 0.10189,-2.9832 1.37695,-1.8262 0.96812,-0.7016 -0.91357,-1.2074 -1.39063,-1.2852 -1.75279,-0.2681 0.93191,-2.5355 1.00977,-0.5722 0.9535,1.0186 2.47671,0.9525 3.78125,0.7461 0.61859,-1.0836 -1.74647,-1.6939 -0.72656,-2.8887 -0.192,-0.8747 0.60462,-2.0633 -0.6836,-2.4844 -0.4809,-0.3629 -0.081,-0.973 0.33399,-1.1348 0.37682,-1.4162 -1.83504,1.3344 -1.42383,-0.4687 0.12246,-1.5682 -1.36901,-0.4426 -2.30078,-0.5039 -0.98041,-0.331 -1.50122,-2.6602 -0.0469,-1.5918 0.33185,-0.9863 -1.19508,-1.9773 -2.20312,-2.1875 -1.20726,-0.2687 -0.73659,-1.1142 -1.29297,-1.9551 -0.95063,0.068 -1.73677,0.1369 -2.60156,0.7891 -0.84125,-0.4029 -2.25037,-2.1404 -2.5293,-0.2383 -0.0684,1.1437 -1.1909,3.7798 -2.58203,2.4355 -1.48834,-0.1788 1.01447,-1.9587 -0.21875,-2.7187 -0.0302,-1.4079 -1.17472,-2.2631 -2.54102,-2.1055 -0.81721,-1.0818 -1.56605,0.412 -0.65039,1.0352 0.77224,0.8936 -1.29391,1.4011 -0.96094,0.098 0.36814,-0.6786 -0.89138,-0.5541 -0.91406,-1.2773 -0.54213,-0.3337 -1.20944,-0.133 -1.81836,-0.1875 -0.64441,0.8308 -1.69204,-0.165 -2.34961,0.5566 -1.40477,-0.5834 -0.35581,-2.9449 -1.91211,-3.1074 -1.41717,-0.1962 0.59767,-1.9272 -1.04492,-2.3594 -0.21203,-0.6953 -0.42079,-1.3577 -1.33594,-0.9824 -0.4066,-0.5396 -0.3368,-2.9554 -1.31445,-1.5371 -0.51314,1.3556 -3.07918,0.7765 -2.99414,-0.6309 0.0892,-0.8677 0.037,-1.3758 -0.89844,-1.6015 -0.3156,-0.3886 -0.62316,-0.5554 -0.92578,-0.586 z" transform="scale(0.26458334)"/><path id="path848832" style="display:inline;fill:indigo;fill-opacity:1;stroke:none;stroke-width:2.551;stroke-linecap:square;stroke-linejoin:bevel;stroke-miterlimit:4;stroke-dasharray:none;stroke-opacity:1" d="M 467.91992 991.46484 C 467.68628 991.46184 467.45783 991.4748 467.24805 991.5 C 466.3317 991.82088 465.35433 992.11835 464.75195 992.93945 C 463.8556 993.85244 464.14317 995.37911 463.19141 996.24023 C 462.21561 996.30073 461.29457 996.34455 460.47656 996.58984 C 461.04901 998.42443 461.91126 1000.8816 459.96484 1002.3594 C 458.85404 1004.3785 456.87372 1005.6373 455.52148 1007.4375 C 454.65578 1008.1708 455.33713 1009.3795 456.20117 1008.3516 C 456.91667 1007.8584 459.21285 1006.7272 458.33203 1008.5332 C 457.15195 1010.0607 455.04679 1010.5824 453.94336 1012.2266 C 453.50327 1013.4141 456.54032 1013.0596 455.14844 1014.4434 C 454.36252 1015.3283 450.83027 1014.2825 452.06055 1015.9609 C 454.10164 1016.2104 453.05296 1018.2612 452.08398 1018.7598 C 451.08472 1016.2547 450.11999 1019.4371 448.625 1018.877 C 447.01662 1019.6982 448.04059 1021.6044 448.97852 1022.5352 C 449.42866 1023.9283 451.06637 1023.605 451.76562 1024.5801 C 451.57551 1025.9305 453.86959 1026.608 452.64453 1027.9902 C 452.68233 1029.319 451.90292 1030.3656 451.68359 1031.6113 C 451.64279 1032.1535 451.44898 1032.8619 450.78125 1032.8789 C 450.69525 1033.5079 451.22709 1033.7981 451.64258 1033.5078 C 452.43938 1034.0774 450.83713 1035.2418 452.16602 1035.3711 C 452.57307 1036.0326 453.20186 1036.2301 453.82812 1036.3711 C 453.3225 1037.5693 454.41978 1038.6003 455.58398 1038.832 C 456.66754 1038.202 457.5679 1038.929 458.60742 1039.25 C 459.17019 1039.9864 460.61289 1041.2649 461.36328 1040.1855 C 461.17782 1039.1351 460.26685 1038.0124 460.78906 1036.8105 C 460.90695 1035.6051 462.38105 1037.9563 462.32812 1036.5449 C 462.20469 1035.9896 462.07748 1035.1789 462.75391 1035.25 C 463.00309 1034.6692 463.66606 1034.4284 463.88867 1033.8652 C 464.1676 1033.7692 464.07713 1033.3704 464.14062 1033.1406 C 464.5552 1032.1287 465.97658 1033.7921 466.75195 1032.8906 C 467.36511 1031.4645 468.68213 1032.6433 469.79297 1032.666 C 470.89289 1032.0326 471.89162 1033.2366 473.00586 1032.8594 C 474.23096 1032.6609 475.24982 1034.1947 476.38867 1033.4297 C 477.43073 1032.8519 478.21483 1031.604 479.32227 1031.4316 C 480.02624 1031.8573 480.43591 1031.7281 481.04688 1031.2852 C 481.41954 1030.4108 481.39558 1028.8015 480.49609 1028.1133 C 480.14384 1026.949 479.60814 1025.7409 478.5625 1025.041 C 478.05215 1025.5993 477.40848 1024.9929 477.21875 1024.3203 C 476.21173 1023.7091 475.76726 1022.6065 475.4082 1021.4785 C 474.69002 1021.4974 473.10957 1020.4667 474.18359 1019.5957 C 474.36614 1018.0898 475.80751 1019.7325 476.41016 1020.0508 C 477.55154 1020.0168 475.87172 1018.6614 476.16992 1018.123 C 476.8084 1018.3457 477.17698 1018.558 477.63672 1017.9551 C 478.93302 1018.2076 478.83058 1016.2826 479.83008 1016.1836 C 480.28373 1016.6073 480.13127 1017.9146 481.22461 1017.5918 C 482.50477 1017.4992 483.32561 1016.5636 483.99609 1015.5234 C 483.99209 1013.8691 486.12847 1014.573 487.10352 1014.0625 C 488.86595 1013.179 487.28951 1011.4942 485.98047 1011.2793 C 484.27813 1010.885 482.94585 1009.698 481.48242 1008.8184 C 480.42714 1007.9802 479.77375 1006.7821 478.93945 1005.748 C 478.05754 1004.8425 477.02559 1004.0014 475.87695 1003.4629 C 474.75583 1003.3849 473.4342 1003.2887 472.68555 1002.3105 C 471.42783 1002.0207 471.15104 1000.5317 471.25195 999.43359 C 471.10833 998.54699 470.35626 997.96857 469.66797 997.47852 C 468.85855 996.80036 469.02671 995.66616 468.68164 994.77344 C 468.34262 993.67722 469.54818 993.05272 469.77344 992.08398 C 469.36595 991.63155 468.62085 991.47356 467.91992 991.46484 z " transform="scale(0.26458334)"/><path id="path795530" style="display:inline;fill:maroon;fill-opacity:1;stroke:none;stroke-width:2.551;stroke-linecap:square;stroke-linejoin:bevel;stroke-miterlimit:4;stroke-dasharray:none;stroke-opacity:1" d="M 462.05078 1041.1328 C 461.50351 1042.074 460.44969 1043.0786 459.55859 1043.8711 C 459.9963 1045.1755 458.99448 1046.3875 458.80664 1047.7852 C 458.64261 1049.0634 459.8717 1050.0764 460.08789 1051.3672 C 459.28977 1052.0157 458.67141 1052.6146 457.68359 1052.7715 C 457.94967 1054.2437 457.47171 1055.8395 456.05469 1056.6641 C 456.53835 1057.6534 454.5152 1056.3087 454.26953 1057.4258 C 452.83815 1056.4668 452.03247 1058.2513 451.31055 1059.2285 C 450.60427 1059.0082 450.86188 1060.4651 449.86133 1059.998 C 448.94528 1061.3357 448.03844 1059.5715 446.85938 1059.6777 C 446.05248 1058.6338 445.805 1060.7013 445.19336 1059.5215 C 444.52756 1059.1749 443.64339 1058.9611 443.60938 1059.8242 C 442.81722 1059.1994 441.87051 1059.0168 440.89062 1059.1094 C 440.06026 1058.9559 439.46047 1059.4013 438.6543 1059.4629 C 437.40966 1060.33 435.67422 1060.9747 434.85742 1062.1797 C 435.93988 1062.5444 434.39399 1063.1947 435.31445 1063.4805 C 434.19163 1064.6732 435.5364 1066.0082 435.80664 1067.2207 C 436.1039 1068.5422 435.04089 1069.4617 436.23828 1069.957 L 436.23828 1069.959 C 437.1397 1069.7953 439.32503 1068.2891 439.29102 1069.9473 C 438.51247 1071.4189 439.6246 1073.0183 439.83398 1074.5996 C 439.94359 1075.3189 440.07402 1076.0113 440.00977 1076.7969 C 440.01732 1077.4903 439.42049 1078.8646 440.62109 1077.8438 C 441.99616 1076.7262 444.04744 1076.1584 445.64062 1076.7949 C 446.11311 1077.7991 446.99197 1078.1725 448.0957 1078.9551 C 449.40531 1079.5417 451.74821 1080.9317 452.75977 1079.332 C 453.508 1079.5475 455.03605 1079.8212 454.48242 1081.1445 C 455.95806 1081.5364 455.10486 1083.4195 455.20312 1084.5312 C 454.1859 1084.9358 454.12242 1086.5018 452.81055 1086.1816 C 451.3433 1086.6977 453.23846 1088.623 451.57422 1089.4453 C 451.38675 1090.1831 452.89054 1090.772 451.82422 1091.6289 C 451.51623 1092.8276 453.2594 1094.3402 451.33789 1095.0703 C 450.71741 1096.1911 452.55948 1095.8865 452.58594 1095.0312 C 453.80476 1094.899 455.69944 1094.4987 456.1582 1095.9766 C 457.04431 1095.8719 458.70209 1094.5557 458.86914 1095.9355 C 459.47678 1096.6922 460.047 1095.1437 460.83594 1095.9844 C 460.76072 1094.6036 461.70038 1094.2132 462.78711 1094.7793 C 463.9252 1094.5835 464.05739 1095.6892 463.35156 1096.2422 C 463.67358 1097.2836 463.47487 1098.4361 463.5293 1099.5352 C 462.78927 1100.3708 463.23028 1102.4229 464.58789 1101.2148 C 465.69147 1099.9869 465.42209 1097.4443 467.75391 1097.9043 C 468.11523 1097.3952 468.8585 1097.4011 468.91406 1098.1543 L 468.91992 1098.1582 C 469.63029 1097.549 470.32348 1096.9194 471 1096.2773 C 471.68617 1095.7924 472.77941 1096.6233 473.48633 1095.707 C 474.27156 1095.2618 475.36856 1095.5093 475.95703 1094.6777 C 476.59834 1093.8897 476.61805 1092.7082 477.45703 1092.0312 C 477.84572 1091.7493 477.71661 1092.3791 478.07227 1092.2461 L 478.07227 1092.2441 C 478.40517 1091.8527 478.02045 1091.4971 478.54883 1091.75 C 479.78462 1091.1516 478.95369 1090.0791 478.59766 1089.0898 C 477.29852 1088.355 478.62428 1086.5271 478.78906 1085.4258 C 479.81445 1084.1246 480.22853 1082.4406 480.29883 1080.8027 C 480.19164 1079.9291 480.38492 1078.5562 481.19336 1077.9668 C 482.45606 1078.0834 483.63848 1078.3544 484.82812 1078.4395 C 485.56764 1077.8153 483.93601 1075.9062 485.11719 1075.1055 C 486.73358 1075.3872 485.40823 1073.8721 484.53516 1073.9023 C 483.67097 1073.11 484.97408 1073.6681 485.5293 1073.5078 C 486.51897 1073.0998 487.53107 1072.0656 486.36523 1071.0352 C 485.27325 1070.3721 488.03661 1068.6488 486.5293 1068.3809 C 485.72142 1068.4251 484.67862 1068.5027 485.00781 1067.4336 C 483.87384 1067.2376 484.1377 1066.036 484.3418 1065.2246 C 483.9897 1063.9163 482.97311 1065.4711 482.25391 1064.8691 C 482.25655 1064.0791 483.09529 1063.3743 482.37109 1062.5527 C 482.84505 1062.0287 483.89124 1061.2934 482.56641 1060.8828 C 482.84413 1059.9627 482.64441 1058.3472 482.08984 1057.2305 C 481.38167 1055.7219 482.44707 1054.1974 481.48242 1052.7988 C 480.32317 1052.5532 481.64509 1049.8454 480.13086 1050.8555 C 479.70147 1051.6617 478.5792 1052.5039 477.6582 1051.4238 C 476.37411 1050.9094 475.55835 1050.0267 474.78906 1048.9609 C 474.06177 1048.6212 472.93102 1049.5542 472.77734 1048.1875 C 472.04642 1047.0437 471.41118 1045.762 470.66797 1044.668 C 470.51074 1043.073 468.85223 1043.1761 467.6582 1042.9375 C 467.55049 1044.6463 464.60094 1044.4543 464.95508 1042.7559 C 465.58055 1040.9948 463.0282 1041.4227 462.05078 1041.1328 z " transform="scale(0.26458334)"/></g></svg>
