<?xml version="1.0" encoding="utf-8"?>
<svg id="tryjsconfig" data-name="Layer 1" xmlns="http://www.w3.org/2000/svg" viewBox="0 0 612 792">
  <path id="rakhalgachi" class="region" style="display: inline; fill: red; fill-opacity: 1; stroke: none; stroke-width: 2.551; stroke-linecap: square; stroke-linejoin: bevel; stroke-miterlimit: 4; stroke-dasharray: none; stroke-opacity: 1;" d="M 195.002 238.822 C 192.727 234.457 195.851 235.321 195.851 223.277 C 195.851 211.234 221.239 212.959 195.851 211.234 C 170.463 209.508 205.58 187.472 170.463 209.521 C 145.039 225.454 147.621 225.865 147.621 225.865 C 142.003 220.617 136.067 215.73 129.847 211.234 C 120.008 204.068 117.154 206.307 117.154 206.307 C 117.154 206.307 118.851 221.314 106.158 217.15 C 93.464 212.985 90.081 206.082 90.081 206.082 L 68.925 206.082 L 57.081 210.384 L 47.782 226.717 L 32.554 238.76 L 16.477 249.953 L 16.477 292.097 L 25.776 310.17 C 25.776 310.17 23.242 310.17 23.242 329.954 L 23.242 349.739 L 35.937 345.436 L 53.697 343.723 L 76.551 334.895 L 93.464 334.895 L 118.851 320.487 L 139.16 313.608 L 165.396 295.55 L 172.16 282.644 L 178.089 265.435 L 184.867 253.392 L 195.002 238.822 Z" fill="red" stroke="#9CA8B6" cursor="pointer"/>
  <path id="khanpur" class="region" style="display: inline; fill: rgb(88, 116, 32); fill-opacity: 1; stroke: none; stroke-width: 2.551; stroke-linecap: square; stroke-linejoin: bevel; stroke-miterlimit: 4; stroke-dasharray: none; stroke-opacity: 1;" d="M 73.156 441.796 C 73.156 441.796 114.62 396.2 139.16 441.796 L 150.156 455.553 C 150.156 455.553 158.9 457.854 158.618 465.02 C 157.892 483.617 168.778 480.503 168.778 480.503 C 168.778 480.503 160.315 479.652 179.774 480.503 C 199.233 481.353 189.085 489.107 199.233 481.366 C 209.381 473.624 208.544 483.091 209.393 473.624 C 210.241 464.157 218.692 464.157 209.393 445.236 L 200.082 426.314 L 192.468 408.242 L 188.237 389.321 L 183.156 360.932 C 183.156 360.932 174.855 329.004 157.77 323.938 C 131.632 316.16 127.487 317.574 127.487 317.574 C 127.487 317.574 110.438 334.895 93.464 334.895 L 76.551 334.895 C 76.551 334.895 61.865 331.142 57.781 342.148 C 53.697 353.153 57.781 366.947 57.781 366.947 L 65.543 380.704 C 65.543 380.704 66.392 379.841 67.24 397.049 L 68.089 414.245 L 63.009 427.152 L 73.156 441.796 Z" fill="#AEB6BF" stroke="#9CA8B6" cursor="pointer"/>
  <path id="shatgambuj" class="region" style="display: inline; fill: rgb(252, 243, 207); fill-opacity: 1; stroke: none; stroke-width: 2.551; stroke-linecap: square; stroke-linejoin: bevel; stroke-miterlimit: 4; stroke-dasharray: none; stroke-opacity: 1;" d="M 217.843 472.761 C 217.843 472.761 225.038 471.511 230.537 472.761 C 250.143 477.363 240.697 478.79 249.159 480.503 L 257.621 482.228 L 277.08 482.228 L 292.308 484.73 C 292.308 484.73 293.44 488.343 299.922 451.201 C 308.003 404.927 313.452 429.703 318.532 408.192 C 323.612 386.682 338.003 388.408 323.612 386.682 C 309.221 384.956 315.149 400.439 309.233 384.969 C 303.316 369.498 321.927 368.623 303.304 369.474 L 284.694 370.336 C 284.694 370.336 294.35 387.945 271.755 369.249 L 249.159 350.552 L 238.151 334.895 C 238.151 334.895 247.462 327.541 224.621 317.574 C 201.779 307.605 227.154 314.472 201.767 307.568 C 176.379 300.665 187.388 305.843 176.392 300.677 L 165.396 295.526 L 134.842 315.047 L 162.406 325.653 L 183.156 360.906 L 187.314 384.142 C 187.314 384.142 190.77 407.354 200.082 426.289 C 205.158 436.375 209.725 446.718 213.759 457.279 L 217.843 472.761 Z" fill="#FCF3CF" stroke="#9CA8B6" cursor="pointer"/>
  <path id="dema" class="region" style="display: inline; fill: rgb(195, 155, 211); fill-opacity: 1; stroke: none; stroke-width: 2.551; stroke-linecap: square; stroke-linejoin: bevel; stroke-miterlimit: 4; stroke-dasharray: none; stroke-opacity: 1;" d="M 173.845 539.868 C 173.845 539.868 173.845 533.841 195.002 525.237 L 216.158 516.632 C 216.158 516.632 218.409 513.631 236.465 507.179 C 260.697 498.511 261.065 499.437 261.065 499.437 L 289.775 489.97 L 292.308 484.779 C 292.308 484.779 303.304 500.287 313.464 500.287 C 323.625 500.287 321.078 508.041 345.617 508.041 L 370.155 508.041 L 382.838 512.318 L 402.308 512.318 L 412.456 539.831 L 415.838 556.252 L 415.838 605.289 C 415.838 605.289 437.844 626.798 423.452 632.802 L 409.074 638.792 L 405.752 639.555 C 401.226 640.605 396.81 638.542 393.846 634.903 C 392.309 633.002 387.695 631.801 376.921 632.765 C 348.151 635.342 356.613 640.505 348.151 635.342 C 339.688 630.176 359.147 631.052 339.688 630.188 C 320.23 629.324 338.84 632.765 320.23 629.324 C 301.619 625.886 317.696 625.023 301.619 625.886 C 285.543 626.75 294.005 624.16 285.543 626.75 L 277.08 629.324 L 264.387 630.188 L 236.465 618.932 C 236.465 618.932 232.431 617.219 213.723 615.493 L 195.002 613.78 L 178.089 613.78 L 158.618 611.279 L 139.959 606.114 C 139.959 606.114 135.728 600.086 154.338 584.603 L 155.187 563.944 C 155.187 563.944 155.187 550.186 164.498 545.034 L 173.845 539.868 Z" fill="#C39BD3" stroke="#9CA8B6" cursor="pointer"/>
  <path id="baruipara" class="region" style="display: inline; fill: rgb(236, 112, 99); fill-opacity: 1; stroke: none; stroke-width: 2.551; stroke-linecap: square; stroke-linejoin: bevel; stroke-miterlimit: 4; stroke-dasharray: none; stroke-opacity: 1;" d="M 261.005 201.542 C 261.005 201.542 211.926 205.781 236.404 201.542 C 245.593 199.966 249.565 201.754 253.293 196.327 C 254.967 193.697 256.396 190.912 257.561 188.01 C 263.477 174.254 249.935 185.421 263.477 174.254 C 277.019 163.086 261.792 173.39 277.006 163.073 L 292.234 152.743 C 291.386 132.959 293.083 146.727 291.386 132.959 C 289.689 119.189 301.545 135.548 289.701 119.201 L 277.856 102.856 L 272.8 88.212 C 272.8 88.212 260.106 87.348 271.951 69.29 L 283.87 51.218 L 295.125 38.312 L 299.098 34.873 L 309.258 34.873 L 329.86 22.83 C 329.86 22.83 354.104 -5.559 374.411 22.83 C 374.411 22.83 389.639 22.83 381.177 30.571 L 372.714 38.312 L 388.791 45.203 L 404.866 58.109 L 428.36 82.197 L 438.717 102.844 L 438.717 138.111 L 424.326 161.335 C 424.326 161.335 423.477 163.06 410.795 183.708 C 402.9 196.279 391.756 206.399 378.582 212.959 L 351.521 231.019 C 351.521 231.019 337.143 239.623 335.444 238.76 L 333.759 237.909 C 333.759 237.909 289.775 217.261 270.34 218.112 L 261.041 201.542 L 261.005 201.542 Z" fill="#EC7063" stroke="#9CA8B6" cursor="pointer"/>
  <path id="jatrapur" class="region" style="display: inline; fill: rgb(133, 193, 233); fill-opacity: 1; stroke: none; stroke-width: 2.551; stroke-linecap: square; stroke-linejoin: bevel; stroke-miterlimit: 4; stroke-dasharray: none; stroke-opacity: 1;" d="M 195.851 223.277 C 195.851 223.277 193.821 234.946 184.855 253.392 C 175.887 271.838 169.11 288.409 169.11 288.409 C 169.11 288.409 163.194 299.014 182.48 303.279 C 201.767 307.544 224.621 317.536 224.621 317.536 C 224.621 317.536 238.151 319.161 238.151 334.858 C 238.151 349.7 243.231 334.858 243.231 334.858 L 258.458 324.751 C 258.458 324.751 260.156 328.203 280.463 324.751 C 300.771 321.3 304.781 317.574 304.781 317.574 L 320.23 295.55 L 329.836 275.64 L 338.003 254.255 L 335.457 238.76 L 289 221.001 L 270.34 218.112 L 261.041 201.542 C 261.041 201.542 224.14 203.068 213.759 208.657 C 207.022 212.471 200.968 217.412 195.851 223.277 Z" fill="#85C1E9" stroke="#9CA8B6" cursor="pointer"/>
  <path id="bagerhat_s" class="region" style="display: inline; fill: rgb(17, 122, 101); fill-opacity: 1; stroke: none; stroke-width: 2.551; stroke-linecap: square; stroke-linejoin: bevel; stroke-miterlimit: 4; stroke-dasharray: none; stroke-opacity: 1;" d="M 442.075 446.098 L 399.763 428.028 L 377.769 419.423 L 356.613 409.106 C 356.613 409.106 324.46 377.314 341.385 340.735 L 360.844 322.213 L 370.992 302.379 L 381.153 279.143 L 386.232 275.59 L 403.994 282.593 L 416.687 281.731 L 420.919 295.487 C 420.919 295.487 440.377 299.777 442.075 328.179 C 442.075 328.179 453.071 349.676 468.299 349.676 C 483.527 349.676 484.375 378.065 474.228 384.093 L 465.765 411.606 L 452.234 427.089 L 442.075 446.098 Z" fill="#117A65" stroke="#9CA8B6" cursor="pointer"/>
  <path id="gotapara" class="region" style="display: inline; fill: rgb(122, 124, 118); fill-opacity: 1; stroke: none; stroke-width: 2.551; stroke-linecap: square; stroke-linejoin: bevel; stroke-miterlimit: 4; stroke-dasharray: none; stroke-opacity: 1;" d="M 584.215 390.61 L 554.609 394.473 L 530.919 401.176 L 504.683 401.176 L 472.53 407.429 L 467.143 407.429 L 474.288 384.205 C 474.288 384.205 487.819 360.92 468.36 349.789 C 462.792 346.46 457.042 343.454 451.14 340.784 L 442.161 328.278 C 442.161 328.278 442.161 296.438 421.005 295.588 L 413.391 275.677 L 453.981 275.677 L 486.072 247.352 C 486.072 247.352 513.133 235.308 529.222 247.352 L 552.013 238.822 C 552.013 238.822 574.019 242.211 556.245 261.996 L 551.177 283.494 C 551.177 283.494 556.245 292.961 569.787 287.796 L 570.636 311.033 L 580.783 317.574 L 579.098 329.091 L 588.04 331.018 C 597.516 333.041 602.918 343.25 599.357 352.403 L 597.708 356.63 L 598.557 372.112 L 596.86 381.567 L 584.215 390.61 Z" fill="#D4AC0D" stroke="#9CA8B6" cursor="pointer"/>
  <path id="bemorta" class="region" style="display: inline; fill: rgb(46, 134, 193); fill-opacity: 1; stroke: none; stroke-width: 2.551; stroke-linecap: square; stroke-linejoin: bevel; stroke-miterlimit: 4; stroke-dasharray: none; stroke-opacity: 1;" d="M 446.306 450.4 L 438.692 476.213 L 435.297 500.3 C 435.297 500.3 430.242 531.239 416.712 533.841 L 415.864 605.251 L 428.163 624.085 L 418.078 635.04 C 418.078 635.04 432.837 650.049 459.024 621.596 L 484.362 606.964 C 484.362 606.964 508.053 614.68 502.985 563.944 L 503.699 536.43 C 503.699 536.43 513.133 543.309 519.061 509.754 L 524.954 476.213 L 519.873 459.017 C 519.873 459.017 519.959 458.567 520.156 457.766 C 522.17 450.369 530.276 446.625 537.082 449.95 C 541.103 451.763 546.996 451.626 555.457 446.123 C 576.602 432.367 581.681 432.367 581.681 432.367 L 581.681 411.681 L 584.215 390.61 L 540.734 398.401 C 540.734 398.401 551.067 398.401 520.759 401.176 L 490.513 403.915 L 467.143 407.429 C 467.143 407.429 445.458 434.943 446.306 450.4 Z" fill="#2E86C1" stroke="#9CA8B6" cursor="pointer"/>
  <path id="bishnopur" class="region" style="display: inline; fill: rgb(46, 134, 193); fill-opacity: 1; stroke: none; stroke-width: 2.551; stroke-linecap: square; stroke-linejoin: bevel; stroke-miterlimit: 4; stroke-dasharray: none; stroke-opacity: 1;" d="M 443.133 116.038 C 446.712 111.649 458.84 99.455 471.583 117.288 C 471.649 117.389 471.723 117.486 471.804 117.575 L 479.75 127.18 C 480.504 128.08 481.494 128.743 482.603 129.094 C 486.528 130.344 496.342 134.034 500.033 141.525 C 504.683 150.993 500.033 145.827 500.033 145.827 L 528.065 133.433 C 528.841 133.09 529.679 132.915 530.526 132.921 L 530.845 132.921 C 534.181 132.921 536.884 135.669 536.884 139.061 L 536.884 149.442 C 536.884 150.459 537.133 151.46 537.611 152.355 L 542.087 160.81 C 542.564 161.705 542.814 162.705 542.813 163.723 L 542.813 177.404 C 542.809 178.139 542.939 178.869 543.195 179.556 L 551.128 201.129 C 551.225 201.391 551.302 201.657 551.362 201.929 L 555.223 219.438 C 555.391 220.263 555.391 221.114 555.223 221.939 L 552.702 235.396 C 552.308 237.516 550.845 239.269 548.853 240.01 L 536.306 244.701 C 534.495 245.377 532.476 245.135 530.869 244.05 C 526.084 240.824 514.313 235.171 498.766 243.399 C 483.44 251.491 475.396 257.256 472.21 259.657 C 471.301 260.341 470.608 261.279 470.217 262.359 C 469.049 265.473 465.15 272.89 453.919 275.665 C 442.124 278.578 422.358 276.715 415.63 275.953 C 414.118 275.783 412.598 276.198 411.374 277.117 L 407.499 280.03 C 405.412 281.608 402.563 281.644 400.438 280.118 L 389.48 272.276 C 388.463 271.553 387.693 270.526 387.278 269.338 L 382.838 256.831 C 382.838 256.831 386.232 258.557 369.307 252.529 C 360.715 249.504 351.684 247.973 342.591 248.001 C 339.863 248.012 337.47 246.154 336.761 243.475 C 336.022 240.717 337.258 237.805 339.738 236.459 L 359.787 225.516 L 360.241 225.241 L 368.003 220.063 C 372.215 217.403 376.907 215.626 381.804 214.836 C 384.485 214.335 389.368 210.897 398.114 199.191 L 415.482 176.067 L 415.826 175.553 L 424.363 161.335 L 438.102 139.149 C 438.529 138.463 438.818 137.697 438.95 136.899 L 441.891 118.976 C 442.037 117.901 442.466 116.886 443.133 116.038 Z" fill="#2E86C1" stroke="#9CA8B6" cursor="pointer"/>
  <path id="karapara" class="region" style="display: inline; fill: rgb(1, 223, 239); fill-opacity: 1; stroke: none; stroke-width: 2.551; stroke-linecap: square; stroke-linejoin: bevel; stroke-miterlimit: 4; stroke-dasharray: none; stroke-opacity: 1;" d="M 383.046 256.269 L 344.142 247.752 C 343.837 247.683 343.551 247.546 343.305 247.352 L 341.681 246.101 C 340.377 245.092 338.489 245.897 338.281 247.548 C 338.261 247.707 338.259 247.868 338.274 248.027 L 338.434 249.653 C 338.46 249.934 338.43 250.22 338.348 250.49 L 330.968 275.115 C 330.934 275.226 330.893 275.336 330.844 275.441 L 321.373 295.062 C 321.333 295.143 321.3 295.227 321.275 295.312 C 320.746 296.889 315.001 313.396 305.863 317.21 C 296.724 321.025 272.652 325.29 269.491 325.852 C 269.268 325.89 269.039 325.89 268.815 325.852 L 260.352 324.601 C 259.834 324.52 259.304 324.636 258.864 324.927 L 245.199 333.981 C 244.644 334.356 244.291 334.97 244.239 335.644 L 243.92 340.297 C 243.886 340.86 244.067 341.415 244.423 341.848 L 254.067 353.39 C 254.168 353.508 254.28 353.617 254.399 353.716 L 282.037 374.976 C 283.347 375.977 285.231 375.161 285.429 373.508 C 285.43 373.498 285.431 373.486 285.433 373.476 L 285.592 371.937 C 285.696 370.866 286.564 370.037 287.622 369.999 L 308.667 369.111 C 310.074 369.048 311.151 370.368 310.832 371.762 L 309.11 379.266 C 309.11 379.266 306.76 390.246 313.895 389.921 C 321.03 389.596 329.221 384.856 329.541 387.12 C 329.8 389.008 325.728 394.498 324.35 396.298 C 324.075 396.658 323.921 397.095 323.907 397.549 C 323.907 400.051 323.316 408.643 317.696 414.057 L 311.435 420.099 C 311.194 420.329 311.012 420.617 310.906 420.936 C 309.024 426.289 292.062 474.938 294.67 481.966 C 294.67 481.966 292.849 493.146 305.863 496.873 L 318.79 500.625 L 318.987 500.7 L 330.549 505.277 C 330.796 505.378 331.058 505.427 331.324 505.426 L 348.213 505.426 L 371.005 507.742 C 371.159 507.756 371.313 507.789 371.46 507.842 L 383.6 511.943 C 383.818 512.018 384.047 512.056 384.277 512.056 L 402.001 512.056 C 402.836 512.044 403.598 512.534 403.944 513.307 L 413.588 535.58 C 414.243 537.106 416.277 537.339 417.251 536 C 417.485 535.676 417.627 535.292 417.659 534.891 C 417.725 534.121 418.196 533.447 418.889 533.128 C 422.001 531.603 430.833 524.737 434.977 495.184 C 439.122 465.632 445.199 458.366 447.351 456.629 C 447.854 456.213 448.14 455.586 448.127 454.928 L 448.127 446.836 C 448.128 445.254 446.512 444.205 445.101 444.873 L 444.019 445.386 C 443.465 445.63 442.837 445.63 442.284 445.386 L 358.041 408.918 C 357.812 408.819 357.605 408.679 357.426 408.506 C 354.042 405.254 321.189 372.238 342.321 340.609 C 342.418 340.469 342.529 340.338 342.653 340.222 L 361.742 322.051 C 361.869 321.936 361.981 321.806 362.075 321.663 C 362.862 320.412 366.995 313.646 374.215 297.226 C 379.368 285.433 380.451 279.718 380.574 277.216 C 380.636 276.126 381.494 275.258 382.567 275.203 L 390.66 274.678 C 392.235 274.576 393.157 272.829 392.37 271.438 L 384.437 257.356 C 384.144 256.811 383.639 256.417 383.046 256.269 Z" fill="rgb(1, 223, 239)" stroke="#9CA8B6" cursor="pointer"/>
</svg>